<mxfile host="Electron" agent="Mozilla/5.0 (Windows NT 10.0; Win64; x64) AppleWebKit/537.36 (KHTML, like Gecko) draw.io/24.7.5 Chrome/126.0.6478.183 Electron/31.3.0 Safari/537.36" version="24.7.5" pages="4">
  <diagram name="Диаграмма артитектуры системы" id="74e2e168-ea6b-b213-b513-2b3c1d86103e">
    <mxGraphModel dx="1195" dy="697" grid="1" gridSize="10" guides="1" tooltips="1" connect="1" arrows="1" fold="1" page="1" pageScale="1" pageWidth="1100" pageHeight="850" background="none" math="0" shadow="0">
      <root>
        <mxCell id="0" />
        <mxCell id="1" parent="0" />
        <mxCell id="v6FRduPzZ8ZqXkI1LLBV-1" value="Диаграмма архитектуры информационной системы" style="shape=umlFrame;whiteSpace=wrap;html=1;pointerEvents=0;recursiveResize=0;container=1;collapsible=0;width=340;fillColor=#d5e8d4;strokeColor=#82b366;gradientColor=none;shadow=0;labelBackgroundColor=none;labelBorderColor=none;height=30;swimlaneFillColor=default;" vertex="1" parent="1">
          <mxGeometry x="130" y="240" width="750" height="590" as="geometry" />
        </mxCell>
        <mxCell id="b9qYsQ53FSdiLKLjTmjg-7" value="" style="group" parent="1" vertex="1" connectable="0">
          <mxGeometry x="160" y="410" width="140" height="110" as="geometry" />
        </mxCell>
        <mxCell id="b9qYsQ53FSdiLKLjTmjg-1" value="&amp;lt;&amp;lt;device&amp;gt;&amp;gt;&lt;div&gt;DB Server&lt;/div&gt;" style="verticalAlign=top;align=center;shape=cube;size=10;direction=south;fontStyle=0;html=1;boundedLbl=1;spacingLeft=5;whiteSpace=wrap;" parent="b9qYsQ53FSdiLKLjTmjg-7" vertex="1">
          <mxGeometry width="140" height="110" as="geometry" />
        </mxCell>
        <mxCell id="b9qYsQ53FSdiLKLjTmjg-5" value="&amp;lt;&amp;lt;artifact&amp;gt;&amp;gt;&lt;div&gt;SQL Server&lt;/div&gt;" style="html=1;align=center;verticalAlign=top;rounded=1;absoluteArcSize=1;arcSize=10;dashed=0;whiteSpace=wrap;" parent="b9qYsQ53FSdiLKLjTmjg-7" vertex="1">
          <mxGeometry x="10" y="50" width="105" height="40" as="geometry" />
        </mxCell>
        <mxCell id="b9qYsQ53FSdiLKLjTmjg-9" value="" style="group" parent="1" vertex="1" connectable="0">
          <mxGeometry x="400" y="400" width="140" height="110" as="geometry" />
        </mxCell>
        <mxCell id="b9qYsQ53FSdiLKLjTmjg-6" value="&amp;lt;&amp;lt;device&amp;gt;&amp;gt;&lt;div&gt;API&lt;/div&gt;" style="verticalAlign=top;align=center;shape=cube;size=10;direction=south;fontStyle=0;html=1;boundedLbl=1;spacingLeft=5;whiteSpace=wrap;" parent="b9qYsQ53FSdiLKLjTmjg-9" vertex="1">
          <mxGeometry width="140" height="110" as="geometry" />
        </mxCell>
        <mxCell id="b9qYsQ53FSdiLKLjTmjg-10" value="" style="group" parent="1" vertex="1" connectable="0">
          <mxGeometry x="390" y="570" width="140" height="110" as="geometry" />
        </mxCell>
        <mxCell id="b9qYsQ53FSdiLKLjTmjg-11" value="&amp;lt;&amp;lt;device&amp;gt;&amp;gt;&lt;div&gt;Web Server&lt;/div&gt;" style="verticalAlign=top;align=center;shape=cube;size=10;direction=south;fontStyle=0;html=1;boundedLbl=1;spacingLeft=5;whiteSpace=wrap;" parent="b9qYsQ53FSdiLKLjTmjg-10" vertex="1">
          <mxGeometry width="140" height="110" as="geometry" />
        </mxCell>
        <mxCell id="b9qYsQ53FSdiLKLjTmjg-12" value="&amp;lt;&amp;lt;artifact&amp;gt;&amp;gt;&lt;div&gt;Website&lt;/div&gt;" style="html=1;align=center;verticalAlign=top;rounded=1;absoluteArcSize=1;arcSize=10;dashed=0;whiteSpace=wrap;" parent="b9qYsQ53FSdiLKLjTmjg-10" vertex="1">
          <mxGeometry x="10" y="50" width="105" height="40" as="geometry" />
        </mxCell>
        <mxCell id="b9qYsQ53FSdiLKLjTmjg-13" value="&lt;span style=&quot;&quot;&gt;&amp;lt;&amp;lt;device&amp;gt;&amp;gt;&lt;/span&gt;&lt;div style=&quot;&quot;&gt;UserClient&lt;/div&gt;" style="verticalAlign=top;align=center;shape=cube;size=10;direction=south;fontStyle=0;html=1;boundedLbl=1;spacingLeft=5;whiteSpace=wrap;" parent="1" vertex="1">
          <mxGeometry x="650" y="265" width="200" height="160" as="geometry" />
        </mxCell>
        <mxCell id="b9qYsQ53FSdiLKLjTmjg-14" value="&amp;lt;&amp;lt;device&amp;gt;&amp;gt;&lt;div&gt;Mobil Phone&lt;/div&gt;" style="verticalAlign=top;align=center;shape=cube;size=10;direction=south;html=1;boundedLbl=1;spacingLeft=5;whiteSpace=wrap;" parent="b9qYsQ53FSdiLKLjTmjg-13" vertex="1">
          <mxGeometry width="170" height="100" relative="1" as="geometry">
            <mxPoint x="10" y="50" as="offset" />
          </mxGeometry>
        </mxCell>
        <mxCell id="b9qYsQ53FSdiLKLjTmjg-23" value="&amp;lt;&amp;lt;artifact&amp;gt;&amp;gt;&lt;div&gt;Android 5.0&lt;/div&gt;" style="html=1;align=center;verticalAlign=top;rounded=1;absoluteArcSize=1;arcSize=10;dashed=0;whiteSpace=wrap;" parent="b9qYsQ53FSdiLKLjTmjg-13" vertex="1">
          <mxGeometry x="20" y="105" width="140" height="40" as="geometry" />
        </mxCell>
        <mxCell id="b9qYsQ53FSdiLKLjTmjg-24" value="&lt;span style=&quot;&quot;&gt;&amp;lt;&amp;lt;device&amp;gt;&amp;gt;&lt;/span&gt;&lt;div style=&quot;&quot;&gt;UserClient&lt;/div&gt;" style="verticalAlign=top;align=center;shape=cube;size=10;direction=south;fontStyle=0;html=1;boundedLbl=1;spacingLeft=5;whiteSpace=wrap;" parent="1" vertex="1">
          <mxGeometry x="650" y="650" width="200" height="160" as="geometry" />
        </mxCell>
        <mxCell id="b9qYsQ53FSdiLKLjTmjg-25" value="&amp;lt;&amp;lt;device&amp;gt;&amp;gt;&lt;div&gt;Browser&lt;/div&gt;" style="verticalAlign=top;align=center;shape=cube;size=10;direction=south;html=1;boundedLbl=1;spacingLeft=5;whiteSpace=wrap;" parent="b9qYsQ53FSdiLKLjTmjg-24" vertex="1">
          <mxGeometry width="170" height="100" relative="1" as="geometry">
            <mxPoint x="10" y="50" as="offset" />
          </mxGeometry>
        </mxCell>
        <mxCell id="b9qYsQ53FSdiLKLjTmjg-26" value="&amp;lt;&amp;lt;artifact&amp;gt;&amp;gt;&lt;div&gt;HTML 5&lt;/div&gt;" style="html=1;align=center;verticalAlign=top;rounded=1;absoluteArcSize=1;arcSize=10;dashed=0;whiteSpace=wrap;" parent="b9qYsQ53FSdiLKLjTmjg-24" vertex="1">
          <mxGeometry x="20" y="105" width="140" height="40" as="geometry" />
        </mxCell>
        <mxCell id="b9qYsQ53FSdiLKLjTmjg-27" value="&lt;span style=&quot;&quot;&gt;&amp;lt;&amp;lt;device&amp;gt;&amp;gt;&lt;/span&gt;&lt;div style=&quot;&quot;&gt;UserClient&lt;/div&gt;" style="verticalAlign=top;align=center;shape=cube;size=10;direction=south;fontStyle=0;html=1;boundedLbl=1;spacingLeft=5;whiteSpace=wrap;" parent="1" vertex="1">
          <mxGeometry x="660" y="460" width="200" height="160" as="geometry" />
        </mxCell>
        <mxCell id="b9qYsQ53FSdiLKLjTmjg-28" value="&amp;lt;&amp;lt;device&amp;gt;&amp;gt;&lt;div&gt;Perconal computer&lt;/div&gt;" style="verticalAlign=top;align=center;shape=cube;size=10;direction=south;html=1;boundedLbl=1;spacingLeft=5;whiteSpace=wrap;" parent="b9qYsQ53FSdiLKLjTmjg-27" vertex="1">
          <mxGeometry width="170" height="100" relative="1" as="geometry">
            <mxPoint x="10" y="50" as="offset" />
          </mxGeometry>
        </mxCell>
        <mxCell id="b9qYsQ53FSdiLKLjTmjg-29" value="&amp;lt;&amp;lt;artifact&amp;gt;&amp;gt;&lt;div&gt;.Net 8&lt;/div&gt;" style="html=1;align=center;verticalAlign=top;rounded=1;absoluteArcSize=1;arcSize=10;dashed=0;whiteSpace=wrap;" parent="b9qYsQ53FSdiLKLjTmjg-27" vertex="1">
          <mxGeometry x="20" y="105" width="140" height="40" as="geometry" />
        </mxCell>
        <mxCell id="b9qYsQ53FSdiLKLjTmjg-30" style="edgeStyle=orthogonalEdgeStyle;rounded=0;orthogonalLoop=1;jettySize=auto;html=1;exitX=0;exitY=0;exitDx=50;exitDy=0;exitPerimeter=0;entryX=0;entryY=0;entryDx=60;entryDy=140;entryPerimeter=0;endArrow=none;endFill=0;" parent="1" source="b9qYsQ53FSdiLKLjTmjg-1" target="b9qYsQ53FSdiLKLjTmjg-6" edge="1">
          <mxGeometry relative="1" as="geometry" />
        </mxCell>
        <mxCell id="b9qYsQ53FSdiLKLjTmjg-36" value="порт: 1433" style="edgeLabel;html=1;align=center;verticalAlign=middle;resizable=0;points=[];" parent="b9qYsQ53FSdiLKLjTmjg-30" vertex="1" connectable="0">
          <mxGeometry x="0.4476" relative="1" as="geometry">
            <mxPoint x="-22" y="-10" as="offset" />
          </mxGeometry>
        </mxCell>
        <mxCell id="b9qYsQ53FSdiLKLjTmjg-31" style="edgeStyle=orthogonalEdgeStyle;rounded=0;orthogonalLoop=1;jettySize=auto;html=1;exitX=0;exitY=0;exitDx=110;exitDy=75;exitPerimeter=0;entryX=0;entryY=0;entryDx=0;entryDy=65;entryPerimeter=0;endArrow=none;endFill=0;dashed=1;" parent="1" source="b9qYsQ53FSdiLKLjTmjg-6" target="b9qYsQ53FSdiLKLjTmjg-11" edge="1">
          <mxGeometry relative="1" as="geometry">
            <mxPoint x="310" y="470" as="sourcePoint" />
            <mxPoint x="410" y="470" as="targetPoint" />
          </mxGeometry>
        </mxCell>
        <mxCell id="b9qYsQ53FSdiLKLjTmjg-37" value="порт: 5297" style="edgeLabel;html=1;align=center;verticalAlign=middle;resizable=0;points=[];" parent="b9qYsQ53FSdiLKLjTmjg-31" vertex="1" connectable="0">
          <mxGeometry x="-0.2218" y="-2" relative="1" as="geometry">
            <mxPoint as="offset" />
          </mxGeometry>
        </mxCell>
        <mxCell id="b9qYsQ53FSdiLKLjTmjg-32" style="edgeStyle=orthogonalEdgeStyle;rounded=0;orthogonalLoop=1;jettySize=auto;html=1;exitX=0;exitY=0;exitDx=50;exitDy=0;exitPerimeter=0;entryX=0;entryY=0;entryDx=85;entryDy=200;entryPerimeter=0;endArrow=none;endFill=0;" parent="1" source="b9qYsQ53FSdiLKLjTmjg-6" target="b9qYsQ53FSdiLKLjTmjg-13" edge="1">
          <mxGeometry relative="1" as="geometry">
            <mxPoint x="475" y="520" as="sourcePoint" />
            <mxPoint x="485" y="580" as="targetPoint" />
            <Array as="points">
              <mxPoint x="600" y="450" />
              <mxPoint x="600" y="350" />
            </Array>
          </mxGeometry>
        </mxCell>
        <mxCell id="b9qYsQ53FSdiLKLjTmjg-39" value="порт: 5297" style="edgeLabel;html=1;align=center;verticalAlign=middle;resizable=0;points=[];" parent="b9qYsQ53FSdiLKLjTmjg-32" vertex="1" connectable="0">
          <mxGeometry x="-0.1997" y="-1" relative="1" as="geometry">
            <mxPoint as="offset" />
          </mxGeometry>
        </mxCell>
        <mxCell id="b9qYsQ53FSdiLKLjTmjg-33" style="edgeStyle=orthogonalEdgeStyle;rounded=0;orthogonalLoop=1;jettySize=auto;html=1;exitX=0;exitY=0;exitDx=50;exitDy=0;exitPerimeter=0;entryX=0;entryY=0;entryDx=85;entryDy=200;entryPerimeter=0;endArrow=none;endFill=0;" parent="1" source="b9qYsQ53FSdiLKLjTmjg-6" target="b9qYsQ53FSdiLKLjTmjg-27" edge="1">
          <mxGeometry relative="1" as="geometry">
            <mxPoint x="550" y="460" as="sourcePoint" />
            <mxPoint x="660" y="360" as="targetPoint" />
            <Array as="points">
              <mxPoint x="540" y="460" />
              <mxPoint x="600" y="460" />
              <mxPoint x="600" y="545" />
            </Array>
          </mxGeometry>
        </mxCell>
        <mxCell id="b9qYsQ53FSdiLKLjTmjg-38" value="порт: 5297" style="edgeLabel;html=1;align=center;verticalAlign=middle;resizable=0;points=[];" parent="b9qYsQ53FSdiLKLjTmjg-33" vertex="1" connectable="0">
          <mxGeometry x="0.1103" y="-2" relative="1" as="geometry">
            <mxPoint as="offset" />
          </mxGeometry>
        </mxCell>
        <mxCell id="b9qYsQ53FSdiLKLjTmjg-35" style="edgeStyle=orthogonalEdgeStyle;rounded=0;orthogonalLoop=1;jettySize=auto;html=1;exitX=0;exitY=0;exitDx=85;exitDy=200;exitPerimeter=0;entryX=0;entryY=0;entryDx=50;entryDy=0;entryPerimeter=0;endArrow=none;endFill=0;" parent="1" source="b9qYsQ53FSdiLKLjTmjg-24" target="b9qYsQ53FSdiLKLjTmjg-11" edge="1">
          <mxGeometry relative="1" as="geometry">
            <mxPoint x="475" y="520" as="sourcePoint" />
            <mxPoint x="475" y="580" as="targetPoint" />
          </mxGeometry>
        </mxCell>
        <mxCell id="b9qYsQ53FSdiLKLjTmjg-40" value="http: 80" style="edgeLabel;html=1;align=center;verticalAlign=middle;resizable=0;points=[];" parent="b9qYsQ53FSdiLKLjTmjg-35" vertex="1" connectable="0">
          <mxGeometry x="-0.0992" relative="1" as="geometry">
            <mxPoint as="offset" />
          </mxGeometry>
        </mxCell>
      </root>
    </mxGraphModel>
  </diagram>
  <diagram id="tE-0Ruu3oaJuIUCgYT5I" name="Диаграмма Use-case">
    <mxGraphModel dx="1687" dy="984" grid="1" gridSize="10" guides="1" tooltips="1" connect="1" arrows="1" fold="1" page="1" pageScale="1" pageWidth="827" pageHeight="1169" math="0" shadow="0">
      <root>
        <mxCell id="0" />
        <mxCell id="1" parent="0" />
        <mxCell id="P0WYLtYAfXd80HV3o_M5-1" value="Диаграмма use-case" style="shape=umlFrame;whiteSpace=wrap;html=1;pointerEvents=0;recursiveResize=0;container=1;collapsible=0;width=160;fillColor=#d5e8d4;strokeColor=#82b366;swimlaneFillColor=default;" vertex="1" parent="1">
          <mxGeometry y="100" width="1390" height="1100" as="geometry" />
        </mxCell>
        <mxCell id="1OVz9VP_4uyatmbJokpm-76" value="Не авторизованный пользователь" style="shape=umlActor;verticalLabelPosition=bottom;verticalAlign=top;html=1;outlineConnect=0;" parent="P0WYLtYAfXd80HV3o_M5-1" vertex="1">
          <mxGeometry x="90" y="900" width="30" height="60" as="geometry" />
        </mxCell>
        <mxCell id="1OVz9VP_4uyatmbJokpm-53" value="Авторизованный пользователь" style="shape=umlActor;verticalLabelPosition=bottom;verticalAlign=top;html=1;outlineConnect=0;" parent="P0WYLtYAfXd80HV3o_M5-1" vertex="1">
          <mxGeometry x="90" y="700" width="30" height="60" as="geometry" />
        </mxCell>
        <mxCell id="1OVz9VP_4uyatmbJokpm-1" value="Сотрудник отдела кадров" style="shape=umlActor;verticalLabelPosition=bottom;verticalAlign=top;html=1;outlineConnect=0;" parent="P0WYLtYAfXd80HV3o_M5-1" vertex="1">
          <mxGeometry x="90" y="290" width="30" height="60" as="geometry" />
        </mxCell>
        <mxCell id="1OVz9VP_4uyatmbJokpm-85" value="Посетитель" style="shape=umlActor;verticalLabelPosition=bottom;verticalAlign=top;html=1;outlineConnect=0;" parent="P0WYLtYAfXd80HV3o_M5-1" vertex="1">
          <mxGeometry x="1330" y="440" width="30" height="60" as="geometry" />
        </mxCell>
        <mxCell id="1OVz9VP_4uyatmbJokpm-111" value="" style="rounded=0;whiteSpace=wrap;html=1;" parent="1" vertex="1">
          <mxGeometry x="200" y="140" width="1060" height="1020" as="geometry" />
        </mxCell>
        <mxCell id="1OVz9VP_4uyatmbJokpm-3" value="Просмотр организационной структуры компании" style="ellipse;whiteSpace=wrap;html=1;" parent="1" vertex="1">
          <mxGeometry x="240" y="210" width="150" height="80" as="geometry" />
        </mxCell>
        <mxCell id="1OVz9VP_4uyatmbJokpm-6" value="Просмотр событий у сотрудника" style="ellipse;whiteSpace=wrap;html=1;" parent="1" vertex="1">
          <mxGeometry x="240" y="360" width="150" height="80" as="geometry" />
        </mxCell>
        <mxCell id="1OVz9VP_4uyatmbJokpm-7" value="Просмотр подробной информации о сотруднике" style="ellipse;whiteSpace=wrap;html=1;" parent="1" vertex="1">
          <mxGeometry x="240" y="480" width="150" height="80" as="geometry" />
        </mxCell>
        <mxCell id="1OVz9VP_4uyatmbJokpm-8" value="Добавление информации о новом сотруднике" style="ellipse;whiteSpace=wrap;html=1;" parent="1" vertex="1">
          <mxGeometry x="240" y="590" width="150" height="80" as="geometry" />
        </mxCell>
        <mxCell id="1OVz9VP_4uyatmbJokpm-9" value="Выбор конкретного отделения" style="ellipse;whiteSpace=wrap;html=1;" parent="1" vertex="1">
          <mxGeometry x="460" y="210" width="150" height="80" as="geometry" />
        </mxCell>
        <mxCell id="1OVz9VP_4uyatmbJokpm-10" value="Просмотр общей информации о сотрудниках выбранного отделения" style="ellipse;whiteSpace=wrap;html=1;" parent="1" vertex="1">
          <mxGeometry x="670" y="210" width="150" height="80" as="geometry" />
        </mxCell>
        <mxCell id="1OVz9VP_4uyatmbJokpm-11" value="&amp;lt;&amp;lt;extend&amp;gt;&amp;gt;" style="html=1;verticalAlign=bottom;labelBackgroundColor=none;endArrow=open;endFill=0;dashed=1;rounded=0;exitX=1;exitY=0.5;exitDx=0;exitDy=0;entryX=0;entryY=0.5;entryDx=0;entryDy=0;" parent="1" source="1OVz9VP_4uyatmbJokpm-3" target="1OVz9VP_4uyatmbJokpm-9" edge="1">
          <mxGeometry width="160" relative="1" as="geometry">
            <mxPoint x="460" y="360" as="sourcePoint" />
            <mxPoint x="620" y="360" as="targetPoint" />
          </mxGeometry>
        </mxCell>
        <mxCell id="1OVz9VP_4uyatmbJokpm-12" value="&amp;lt;&amp;lt;extend&amp;gt;&amp;gt;" style="html=1;verticalAlign=bottom;labelBackgroundColor=none;endArrow=open;endFill=0;dashed=1;rounded=0;exitX=1;exitY=0.5;exitDx=0;exitDy=0;entryX=0;entryY=0.5;entryDx=0;entryDy=0;" parent="1" source="1OVz9VP_4uyatmbJokpm-9" target="1OVz9VP_4uyatmbJokpm-10" edge="1">
          <mxGeometry width="160" relative="1" as="geometry">
            <mxPoint x="400" y="260" as="sourcePoint" />
            <mxPoint x="470" y="260" as="targetPoint" />
          </mxGeometry>
        </mxCell>
        <mxCell id="1OVz9VP_4uyatmbJokpm-13" value="" style="endArrow=none;startArrow=none;endFill=0;startFill=0;endSize=8;html=1;verticalAlign=bottom;labelBackgroundColor=none;strokeWidth=1;rounded=0;entryX=0;entryY=0.5;entryDx=0;entryDy=0;" parent="1" source="1OVz9VP_4uyatmbJokpm-1" target="1OVz9VP_4uyatmbJokpm-3" edge="1">
          <mxGeometry width="160" relative="1" as="geometry">
            <mxPoint x="360" y="360" as="sourcePoint" />
            <mxPoint x="520" y="360" as="targetPoint" />
          </mxGeometry>
        </mxCell>
        <mxCell id="1OVz9VP_4uyatmbJokpm-14" value="" style="endArrow=none;startArrow=none;endFill=0;startFill=0;endSize=8;html=1;verticalAlign=bottom;labelBackgroundColor=none;strokeWidth=1;rounded=0;entryX=0;entryY=0.5;entryDx=0;entryDy=0;" parent="1" source="1OVz9VP_4uyatmbJokpm-1" target="1OVz9VP_4uyatmbJokpm-6" edge="1">
          <mxGeometry width="160" relative="1" as="geometry">
            <mxPoint x="80" y="425" as="sourcePoint" />
            <mxPoint x="250" y="260" as="targetPoint" />
          </mxGeometry>
        </mxCell>
        <mxCell id="1OVz9VP_4uyatmbJokpm-15" value="" style="endArrow=none;startArrow=none;endFill=0;startFill=0;endSize=8;html=1;verticalAlign=bottom;labelBackgroundColor=none;strokeWidth=1;rounded=0;entryX=0;entryY=0.5;entryDx=0;entryDy=0;" parent="1" source="1OVz9VP_4uyatmbJokpm-1" target="1OVz9VP_4uyatmbJokpm-7" edge="1">
          <mxGeometry width="160" relative="1" as="geometry">
            <mxPoint x="80" y="438" as="sourcePoint" />
            <mxPoint x="250" y="410" as="targetPoint" />
          </mxGeometry>
        </mxCell>
        <mxCell id="1OVz9VP_4uyatmbJokpm-16" value="" style="endArrow=none;startArrow=none;endFill=0;startFill=0;endSize=8;html=1;verticalAlign=bottom;labelBackgroundColor=none;strokeWidth=1;rounded=0;entryX=0;entryY=0.5;entryDx=0;entryDy=0;" parent="1" source="1OVz9VP_4uyatmbJokpm-1" target="1OVz9VP_4uyatmbJokpm-8" edge="1">
          <mxGeometry width="160" relative="1" as="geometry">
            <mxPoint x="80" y="447" as="sourcePoint" />
            <mxPoint x="250" y="530" as="targetPoint" />
          </mxGeometry>
        </mxCell>
        <mxCell id="1OVz9VP_4uyatmbJokpm-17" value="Добавление событий" style="ellipse;whiteSpace=wrap;html=1;" parent="1" vertex="1">
          <mxGeometry x="460" y="390" width="130" height="60" as="geometry" />
        </mxCell>
        <mxCell id="1OVz9VP_4uyatmbJokpm-18" value="&amp;lt;&amp;lt;extend&amp;gt;&amp;gt;" style="html=1;verticalAlign=bottom;labelBackgroundColor=none;endArrow=open;endFill=0;dashed=1;rounded=0;exitX=1;exitY=0.5;exitDx=0;exitDy=0;entryX=0;entryY=0.5;entryDx=0;entryDy=0;" parent="1" source="1OVz9VP_4uyatmbJokpm-6" target="1OVz9VP_4uyatmbJokpm-17" edge="1">
          <mxGeometry width="160" relative="1" as="geometry">
            <mxPoint x="360" y="430" as="sourcePoint" />
            <mxPoint x="520" y="430" as="targetPoint" />
          </mxGeometry>
        </mxCell>
        <mxCell id="1OVz9VP_4uyatmbJokpm-19" value="Добавление события отпуск" style="ellipse;whiteSpace=wrap;html=1;" parent="1" vertex="1">
          <mxGeometry x="630" y="330" width="130" height="60" as="geometry" />
        </mxCell>
        <mxCell id="1OVz9VP_4uyatmbJokpm-20" value="Добавление события отгул" style="ellipse;whiteSpace=wrap;html=1;" parent="1" vertex="1">
          <mxGeometry x="630" y="400" width="130" height="60" as="geometry" />
        </mxCell>
        <mxCell id="1OVz9VP_4uyatmbJokpm-21" value="Добавление события обучение" style="ellipse;whiteSpace=wrap;html=1;" parent="1" vertex="1">
          <mxGeometry x="610" y="470" width="130" height="60" as="geometry" />
        </mxCell>
        <mxCell id="1OVz9VP_4uyatmbJokpm-24" value="" style="edgeStyle=none;html=1;endArrow=block;endFill=0;endSize=12;verticalAlign=bottom;rounded=0;exitX=0;exitY=0.5;exitDx=0;exitDy=0;entryX=1;entryY=0;entryDx=0;entryDy=0;" parent="1" source="1OVz9VP_4uyatmbJokpm-19" target="1OVz9VP_4uyatmbJokpm-17" edge="1">
          <mxGeometry width="160" relative="1" as="geometry">
            <mxPoint x="380" y="330" as="sourcePoint" />
            <mxPoint x="540" y="330" as="targetPoint" />
          </mxGeometry>
        </mxCell>
        <mxCell id="1OVz9VP_4uyatmbJokpm-25" value="" style="edgeStyle=none;html=1;endArrow=block;endFill=0;endSize=12;verticalAlign=bottom;rounded=0;exitX=0;exitY=0.5;exitDx=0;exitDy=0;entryX=1;entryY=0.5;entryDx=0;entryDy=0;" parent="1" source="1OVz9VP_4uyatmbJokpm-20" target="1OVz9VP_4uyatmbJokpm-17" edge="1">
          <mxGeometry width="160" relative="1" as="geometry">
            <mxPoint x="630" y="380" as="sourcePoint" />
            <mxPoint x="581" y="409" as="targetPoint" />
          </mxGeometry>
        </mxCell>
        <mxCell id="1OVz9VP_4uyatmbJokpm-26" value="" style="edgeStyle=none;html=1;endArrow=block;endFill=0;endSize=12;verticalAlign=bottom;rounded=0;exitX=0;exitY=0;exitDx=0;exitDy=0;entryX=1;entryY=1;entryDx=0;entryDy=0;" parent="1" source="1OVz9VP_4uyatmbJokpm-21" target="1OVz9VP_4uyatmbJokpm-17" edge="1">
          <mxGeometry width="160" relative="1" as="geometry">
            <mxPoint x="639" y="456" as="sourcePoint" />
            <mxPoint x="600" y="430" as="targetPoint" />
          </mxGeometry>
        </mxCell>
        <mxCell id="1OVz9VP_4uyatmbJokpm-27" value="Редактирование информации о сотруднике" style="ellipse;whiteSpace=wrap;html=1;" parent="1" vertex="1">
          <mxGeometry x="460" y="530" width="130" height="60" as="geometry" />
        </mxCell>
        <mxCell id="1OVz9VP_4uyatmbJokpm-29" value="&amp;lt;&amp;lt;extend&amp;gt;&amp;gt;" style="html=1;verticalAlign=bottom;labelBackgroundColor=none;endArrow=open;endFill=0;dashed=1;rounded=0;exitX=1;exitY=0.5;exitDx=0;exitDy=0;entryX=0;entryY=0.5;entryDx=0;entryDy=0;" parent="1" source="1OVz9VP_4uyatmbJokpm-7" target="1OVz9VP_4uyatmbJokpm-27" edge="1">
          <mxGeometry width="160" relative="1" as="geometry">
            <mxPoint x="400" y="410" as="sourcePoint" />
            <mxPoint x="470" y="430" as="targetPoint" />
          </mxGeometry>
        </mxCell>
        <mxCell id="1OVz9VP_4uyatmbJokpm-54" value="Просмотр списка документов&amp;nbsp;" style="ellipse;whiteSpace=wrap;html=1;" parent="1" vertex="1">
          <mxGeometry x="230" y="700" width="150" height="80" as="geometry" />
        </mxCell>
        <mxCell id="1OVz9VP_4uyatmbJokpm-55" value="Создание комментария" style="ellipse;whiteSpace=wrap;html=1;" parent="1" vertex="1">
          <mxGeometry x="230" y="790" width="150" height="80" as="geometry" />
        </mxCell>
        <mxCell id="1OVz9VP_4uyatmbJokpm-56" value="Просмотр списка комментариев к документу" style="ellipse;whiteSpace=wrap;html=1;" parent="1" vertex="1">
          <mxGeometry x="230" y="890" width="150" height="80" as="geometry" />
        </mxCell>
        <mxCell id="1OVz9VP_4uyatmbJokpm-62" value="" style="endArrow=none;startArrow=none;endFill=0;startFill=0;endSize=8;html=1;verticalAlign=bottom;labelBackgroundColor=none;strokeWidth=1;rounded=0;entryX=0;entryY=0.5;entryDx=0;entryDy=0;" parent="1" source="1OVz9VP_4uyatmbJokpm-53" target="1OVz9VP_4uyatmbJokpm-54" edge="1">
          <mxGeometry width="160" relative="1" as="geometry">
            <mxPoint x="340" y="799" as="sourcePoint" />
            <mxPoint x="500" y="799" as="targetPoint" />
          </mxGeometry>
        </mxCell>
        <mxCell id="1OVz9VP_4uyatmbJokpm-63" value="" style="endArrow=none;startArrow=none;endFill=0;startFill=0;endSize=8;html=1;verticalAlign=bottom;labelBackgroundColor=none;strokeWidth=1;rounded=0;entryX=0;entryY=0.5;entryDx=0;entryDy=0;" parent="1" source="1OVz9VP_4uyatmbJokpm-53" target="1OVz9VP_4uyatmbJokpm-55" edge="1">
          <mxGeometry width="160" relative="1" as="geometry">
            <mxPoint x="60" y="864" as="sourcePoint" />
            <mxPoint x="230" y="699" as="targetPoint" />
          </mxGeometry>
        </mxCell>
        <mxCell id="1OVz9VP_4uyatmbJokpm-64" value="" style="endArrow=none;startArrow=none;endFill=0;startFill=0;endSize=8;html=1;verticalAlign=bottom;labelBackgroundColor=none;strokeWidth=1;rounded=0;entryX=0;entryY=0.5;entryDx=0;entryDy=0;" parent="1" source="1OVz9VP_4uyatmbJokpm-53" target="1OVz9VP_4uyatmbJokpm-56" edge="1">
          <mxGeometry width="160" relative="1" as="geometry">
            <mxPoint x="60" y="877" as="sourcePoint" />
            <mxPoint x="230" y="849" as="targetPoint" />
          </mxGeometry>
        </mxCell>
        <mxCell id="1OVz9VP_4uyatmbJokpm-78" value="Авторизация" style="ellipse;whiteSpace=wrap;html=1;" parent="1" vertex="1">
          <mxGeometry x="220" y="990" width="150" height="80" as="geometry" />
        </mxCell>
        <mxCell id="1OVz9VP_4uyatmbJokpm-81" value="" style="endArrow=none;startArrow=none;endFill=0;startFill=0;endSize=8;html=1;verticalAlign=bottom;labelBackgroundColor=none;strokeWidth=1;rounded=0;entryX=0;entryY=0.5;entryDx=0;entryDy=0;" parent="1" source="1OVz9VP_4uyatmbJokpm-76" target="1OVz9VP_4uyatmbJokpm-78" edge="1">
          <mxGeometry width="160" relative="1" as="geometry">
            <mxPoint x="50" y="1104" as="sourcePoint" />
            <mxPoint x="220" y="939" as="targetPoint" />
          </mxGeometry>
        </mxCell>
        <mxCell id="1OVz9VP_4uyatmbJokpm-89" value="Просмотр списка событий компании" style="ellipse;whiteSpace=wrap;html=1;" parent="1" vertex="1">
          <mxGeometry x="1040" y="320" width="150" height="80" as="geometry" />
        </mxCell>
        <mxCell id="1OVz9VP_4uyatmbJokpm-90" value="Просмотр списка новостей компании" style="ellipse;whiteSpace=wrap;html=1;" parent="1" vertex="1">
          <mxGeometry x="1040" y="420" width="150" height="80" as="geometry" />
        </mxCell>
        <mxCell id="1OVz9VP_4uyatmbJokpm-91" value="Просмотр списка сотрудников компании" style="ellipse;whiteSpace=wrap;html=1;" parent="1" vertex="1">
          <mxGeometry x="1036" y="530" width="150" height="80" as="geometry" />
        </mxCell>
        <mxCell id="1OVz9VP_4uyatmbJokpm-92" value="Добавление события в системный колендарь" style="ellipse;whiteSpace=wrap;html=1;" parent="1" vertex="1">
          <mxGeometry x="800" y="310" width="140" height="80" as="geometry" />
        </mxCell>
        <mxCell id="1OVz9VP_4uyatmbJokpm-93" value="&amp;lt;&amp;lt;extend&amp;gt;&amp;gt;" style="html=1;verticalAlign=bottom;labelBackgroundColor=none;endArrow=open;endFill=0;dashed=1;rounded=0;exitX=0;exitY=0.5;exitDx=0;exitDy=0;entryX=1;entryY=0.5;entryDx=0;entryDy=0;" parent="1" source="1OVz9VP_4uyatmbJokpm-89" target="1OVz9VP_4uyatmbJokpm-92" edge="1">
          <mxGeometry width="160" relative="1" as="geometry">
            <mxPoint x="490" y="300" as="sourcePoint" />
            <mxPoint x="550" y="300" as="targetPoint" />
          </mxGeometry>
        </mxCell>
        <mxCell id="1OVz9VP_4uyatmbJokpm-94" value="Получение QR кода с контактными данынми сотрудника" style="ellipse;whiteSpace=wrap;html=1;" parent="1" vertex="1">
          <mxGeometry x="780" y="520" width="140" height="80" as="geometry" />
        </mxCell>
        <mxCell id="1OVz9VP_4uyatmbJokpm-95" value="&amp;lt;&amp;lt;extend&amp;gt;&amp;gt;" style="html=1;verticalAlign=bottom;labelBackgroundColor=none;endArrow=open;endFill=0;dashed=1;rounded=0;exitX=0;exitY=0.5;exitDx=0;exitDy=0;entryX=1;entryY=0.5;entryDx=0;entryDy=0;" parent="1" source="1OVz9VP_4uyatmbJokpm-91" target="1OVz9VP_4uyatmbJokpm-94" edge="1">
          <mxGeometry width="160" relative="1" as="geometry">
            <mxPoint x="1050" y="370" as="sourcePoint" />
            <mxPoint x="950" y="360" as="targetPoint" />
          </mxGeometry>
        </mxCell>
        <mxCell id="1OVz9VP_4uyatmbJokpm-96" value="" style="endArrow=none;html=1;rounded=0;exitX=1;exitY=0.5;exitDx=0;exitDy=0;" parent="1" source="1OVz9VP_4uyatmbJokpm-91" target="1OVz9VP_4uyatmbJokpm-85" edge="1">
          <mxGeometry width="50" height="50" relative="1" as="geometry">
            <mxPoint x="1200" y="580" as="sourcePoint" />
            <mxPoint x="1250" y="530" as="targetPoint" />
          </mxGeometry>
        </mxCell>
        <mxCell id="1OVz9VP_4uyatmbJokpm-97" value="" style="endArrow=none;html=1;rounded=0;exitX=1;exitY=0.5;exitDx=0;exitDy=0;" parent="1" source="1OVz9VP_4uyatmbJokpm-90" target="1OVz9VP_4uyatmbJokpm-85" edge="1">
          <mxGeometry width="50" height="50" relative="1" as="geometry">
            <mxPoint x="1196" y="580" as="sourcePoint" />
            <mxPoint x="1270" y="464" as="targetPoint" />
          </mxGeometry>
        </mxCell>
        <mxCell id="1OVz9VP_4uyatmbJokpm-98" value="" style="endArrow=none;html=1;rounded=0;exitX=1;exitY=0.5;exitDx=0;exitDy=0;" parent="1" source="1OVz9VP_4uyatmbJokpm-89" target="1OVz9VP_4uyatmbJokpm-85" edge="1">
          <mxGeometry width="50" height="50" relative="1" as="geometry">
            <mxPoint x="1200" y="470" as="sourcePoint" />
            <mxPoint x="1270" y="445" as="targetPoint" />
          </mxGeometry>
        </mxCell>
        <mxCell id="1OVz9VP_4uyatmbJokpm-99" value="Фильтрация данных по поисковой строке" style="ellipse;whiteSpace=wrap;html=1;" parent="1" vertex="1">
          <mxGeometry x="1036" y="636" width="150" height="80" as="geometry" />
        </mxCell>
        <mxCell id="1OVz9VP_4uyatmbJokpm-100" value="" style="endArrow=none;html=1;rounded=0;exitX=1;exitY=0.5;exitDx=0;exitDy=0;" parent="1" source="1OVz9VP_4uyatmbJokpm-99" target="1OVz9VP_4uyatmbJokpm-85" edge="1">
          <mxGeometry width="50" height="50" relative="1" as="geometry">
            <mxPoint x="1200" y="686" as="sourcePoint" />
            <mxPoint x="1260" y="560" as="targetPoint" />
          </mxGeometry>
        </mxCell>
        <mxCell id="1OVz9VP_4uyatmbJokpm-101" value="Просмотр календаря событий" style="ellipse;whiteSpace=wrap;html=1;" parent="1" vertex="1">
          <mxGeometry x="1040" y="740" width="150" height="80" as="geometry" />
        </mxCell>
        <mxCell id="1OVz9VP_4uyatmbJokpm-102" value="" style="endArrow=none;html=1;rounded=0;exitX=1;exitY=0.5;exitDx=0;exitDy=0;" parent="1" source="1OVz9VP_4uyatmbJokpm-101" target="1OVz9VP_4uyatmbJokpm-85" edge="1">
          <mxGeometry width="50" height="50" relative="1" as="geometry">
            <mxPoint x="1196" y="686" as="sourcePoint" />
            <mxPoint x="1274" y="470" as="targetPoint" />
          </mxGeometry>
        </mxCell>
        <mxCell id="1OVz9VP_4uyatmbJokpm-103" value="Просмотр рабочего графика компании" style="ellipse;whiteSpace=wrap;html=1;" parent="1" vertex="1">
          <mxGeometry x="750" y="636" width="140" height="80" as="geometry" />
        </mxCell>
        <mxCell id="1OVz9VP_4uyatmbJokpm-104" value="&amp;lt;&amp;lt;extend&amp;gt;&amp;gt;" style="html=1;verticalAlign=bottom;labelBackgroundColor=none;endArrow=open;endFill=0;dashed=1;rounded=0;exitX=0;exitY=0.5;exitDx=0;exitDy=0;entryX=1;entryY=0.5;entryDx=0;entryDy=0;" parent="1" source="1OVz9VP_4uyatmbJokpm-101" target="1OVz9VP_4uyatmbJokpm-103" edge="1">
          <mxGeometry width="160" relative="1" as="geometry">
            <mxPoint x="1098" y="780" as="sourcePoint" />
            <mxPoint x="970" y="540" as="targetPoint" />
          </mxGeometry>
        </mxCell>
        <mxCell id="1OVz9VP_4uyatmbJokpm-105" value="Просмотр информации о днях рождения" style="ellipse;whiteSpace=wrap;html=1;" parent="1" vertex="1">
          <mxGeometry x="750" y="746" width="140" height="80" as="geometry" />
        </mxCell>
        <mxCell id="1OVz9VP_4uyatmbJokpm-106" value="&amp;lt;&amp;lt;extend&amp;gt;&amp;gt;" style="html=1;verticalAlign=bottom;labelBackgroundColor=none;endArrow=open;endFill=0;dashed=1;rounded=0;exitX=0;exitY=0.5;exitDx=0;exitDy=0;entryX=1;entryY=0.5;entryDx=0;entryDy=0;" parent="1" source="1OVz9VP_4uyatmbJokpm-101" target="1OVz9VP_4uyatmbJokpm-105" edge="1">
          <mxGeometry width="160" relative="1" as="geometry">
            <mxPoint x="1040" y="890" as="sourcePoint" />
            <mxPoint x="970" y="650" as="targetPoint" />
          </mxGeometry>
        </mxCell>
        <mxCell id="1OVz9VP_4uyatmbJokpm-107" value="Просмотр количества событий в опрееделйнный день" style="ellipse;whiteSpace=wrap;html=1;" parent="1" vertex="1">
          <mxGeometry x="760" y="845" width="140" height="80" as="geometry" />
        </mxCell>
        <mxCell id="1OVz9VP_4uyatmbJokpm-108" value="&amp;lt;&amp;lt;extend&amp;gt;&amp;gt;" style="html=1;verticalAlign=bottom;labelBackgroundColor=none;endArrow=open;endFill=0;dashed=1;rounded=0;exitX=0;exitY=0.5;exitDx=0;exitDy=0;entryX=1;entryY=0.5;entryDx=0;entryDy=0;" parent="1" source="1OVz9VP_4uyatmbJokpm-101" target="1OVz9VP_4uyatmbJokpm-107" edge="1">
          <mxGeometry width="160" relative="1" as="geometry">
            <mxPoint x="1040" y="879" as="sourcePoint" />
            <mxPoint x="970" y="749" as="targetPoint" />
          </mxGeometry>
        </mxCell>
        <mxCell id="1OVz9VP_4uyatmbJokpm-109" value="Просмотр текущего дня" style="ellipse;whiteSpace=wrap;html=1;" parent="1" vertex="1">
          <mxGeometry x="760" y="946" width="140" height="80" as="geometry" />
        </mxCell>
        <mxCell id="1OVz9VP_4uyatmbJokpm-110" value="&amp;lt;&amp;lt;extend&amp;gt;&amp;gt;" style="html=1;verticalAlign=bottom;labelBackgroundColor=none;endArrow=open;endFill=0;dashed=1;rounded=0;exitX=0;exitY=0.5;exitDx=0;exitDy=0;entryX=1;entryY=0.5;entryDx=0;entryDy=0;" parent="1" source="1OVz9VP_4uyatmbJokpm-101" target="1OVz9VP_4uyatmbJokpm-109" edge="1">
          <mxGeometry width="160" relative="1" as="geometry">
            <mxPoint x="1050" y="790" as="sourcePoint" />
            <mxPoint x="920" y="939" as="targetPoint" />
          </mxGeometry>
        </mxCell>
      </root>
    </mxGraphModel>
  </diagram>
  <diagram id="46u4LMjUcRqgniW_7GrE" name="Диаграмма деятельности">
    <mxGraphModel dx="1434" dy="836" grid="1" gridSize="10" guides="1" tooltips="1" connect="1" arrows="1" fold="1" page="1" pageScale="1" pageWidth="827" pageHeight="1169" math="0" shadow="0">
      <root>
        <mxCell id="0" />
        <mxCell id="1" parent="0" />
        <mxCell id="OPpEMZyE9OPgnRbNqnjs-1" value="Диаграмма деятельности" style="shape=umlFrame;whiteSpace=wrap;html=1;pointerEvents=0;recursiveResize=0;container=1;collapsible=0;width=160;fillColor=#d5e8d4;strokeColor=#82b366;swimlaneFillColor=default;" vertex="1" parent="1">
          <mxGeometry x="90" y="40" width="1060" height="1660" as="geometry" />
        </mxCell>
        <mxCell id="EjlWz6VdOE6wZs4s_gLQ-17" value="" style="group" parent="1" vertex="1" connectable="0">
          <mxGeometry x="110" y="90" width="1020" height="1590" as="geometry" />
        </mxCell>
        <mxCell id="EjlWz6VdOE6wZs4s_gLQ-15" value="Система" style="swimlane;whiteSpace=wrap;html=1;" parent="EjlWz6VdOE6wZs4s_gLQ-17" vertex="1">
          <mxGeometry width="280" height="1590" as="geometry" />
        </mxCell>
        <mxCell id="EjlWz6VdOE6wZs4s_gLQ-20" value="Отображение данных об отделениях" style="html=1;dashed=0;whiteSpace=wrap;" parent="EjlWz6VdOE6wZs4s_gLQ-15" vertex="1">
          <mxGeometry x="60" y="110" width="140" height="80" as="geometry" />
        </mxCell>
        <mxCell id="EjlWz6VdOE6wZs4s_gLQ-29" value="Отображение формы добавления данных о сотруднике" style="html=1;dashed=0;whiteSpace=wrap;" parent="EjlWz6VdOE6wZs4s_gLQ-15" vertex="1">
          <mxGeometry x="50" y="390" width="140" height="70" as="geometry" />
        </mxCell>
        <mxCell id="EjlWz6VdOE6wZs4s_gLQ-32" value="Сохранение добавленных данных о сотруднике в БД" style="html=1;dashed=0;whiteSpace=wrap;" parent="EjlWz6VdOE6wZs4s_gLQ-15" vertex="1">
          <mxGeometry x="60" y="580" width="140" height="70" as="geometry" />
        </mxCell>
        <mxCell id="EjlWz6VdOE6wZs4s_gLQ-52" value="Отображение данных о сотрудниках выбранного отделения и дочерних в алфовитном порядке" style="html=1;dashed=0;whiteSpace=wrap;" parent="EjlWz6VdOE6wZs4s_gLQ-15" vertex="1">
          <mxGeometry x="60" y="730" width="150" height="80" as="geometry" />
        </mxCell>
        <mxCell id="EjlWz6VdOE6wZs4s_gLQ-59" value="Отображение формы изменения данных о сотруднике" style="html=1;dashed=0;whiteSpace=wrap;" parent="EjlWz6VdOE6wZs4s_gLQ-15" vertex="1">
          <mxGeometry x="40" y="1090" width="140" height="70" as="geometry" />
        </mxCell>
        <mxCell id="EjlWz6VdOE6wZs4s_gLQ-62" value="Сохранение изменений в БД" style="html=1;dashed=0;whiteSpace=wrap;" parent="EjlWz6VdOE6wZs4s_gLQ-15" vertex="1">
          <mxGeometry x="60" y="1290" width="140" height="70" as="geometry" />
        </mxCell>
        <mxCell id="EjlWz6VdOE6wZs4s_gLQ-16" value="Сотрудник" style="swimlane;whiteSpace=wrap;html=1;" parent="EjlWz6VdOE6wZs4s_gLQ-17" vertex="1">
          <mxGeometry x="280" width="740" height="1590" as="geometry" />
        </mxCell>
        <mxCell id="EjlWz6VdOE6wZs4s_gLQ-18" value="" style="ellipse;html=1;shape=startState;fillColor=#000000;strokeColor=#ff0000;" parent="EjlWz6VdOE6wZs4s_gLQ-16" vertex="1">
          <mxGeometry x="280" y="50" width="30" height="30" as="geometry" />
        </mxCell>
        <mxCell id="EjlWz6VdOE6wZs4s_gLQ-24" value="Хотите добавить данные о сотруднике?" style="rhombus;whiteSpace=wrap;html=1;fontColor=#000000;fillColor=#ffffc0;strokeColor=#ff0000;" parent="EjlWz6VdOE6wZs4s_gLQ-16" vertex="1">
          <mxGeometry x="240" y="230" width="170" height="100" as="geometry" />
        </mxCell>
        <mxCell id="EjlWz6VdOE6wZs4s_gLQ-25" value="Нет" style="edgeStyle=orthogonalEdgeStyle;html=1;align=left;verticalAlign=bottom;endArrow=open;endSize=8;strokeColor=#ff0000;rounded=0;" parent="EjlWz6VdOE6wZs4s_gLQ-16" source="EjlWz6VdOE6wZs4s_gLQ-24" target="EjlWz6VdOE6wZs4s_gLQ-35" edge="1">
          <mxGeometry x="-1" relative="1" as="geometry">
            <mxPoint x="470" y="340" as="targetPoint" />
            <Array as="points">
              <mxPoint x="495" y="280" />
            </Array>
          </mxGeometry>
        </mxCell>
        <mxCell id="EjlWz6VdOE6wZs4s_gLQ-26" value="Да" style="edgeStyle=orthogonalEdgeStyle;html=1;align=left;verticalAlign=top;endArrow=open;endSize=8;strokeColor=#ff0000;rounded=0;exitX=0;exitY=0.5;exitDx=0;exitDy=0;entryX=0.5;entryY=0;entryDx=0;entryDy=0;" parent="EjlWz6VdOE6wZs4s_gLQ-16" source="EjlWz6VdOE6wZs4s_gLQ-24" target="EjlWz6VdOE6wZs4s_gLQ-27" edge="1">
          <mxGeometry x="-0.9091" relative="1" as="geometry">
            <mxPoint x="60" y="320" as="targetPoint" />
            <mxPoint as="offset" />
          </mxGeometry>
        </mxCell>
        <mxCell id="EjlWz6VdOE6wZs4s_gLQ-27" value="Выбор добавления данных о сотруднике" style="html=1;dashed=0;whiteSpace=wrap;" parent="EjlWz6VdOE6wZs4s_gLQ-16" vertex="1">
          <mxGeometry x="40" y="300" width="124" height="60" as="geometry" />
        </mxCell>
        <mxCell id="EjlWz6VdOE6wZs4s_gLQ-31" value="Ввод данных о сотруднике" style="html=1;dashed=0;whiteSpace=wrap;" parent="EjlWz6VdOE6wZs4s_gLQ-16" vertex="1">
          <mxGeometry x="40" y="500" width="124" height="60" as="geometry" />
        </mxCell>
        <mxCell id="EjlWz6VdOE6wZs4s_gLQ-35" value="" style="shape=line;html=1;strokeWidth=6;strokeColor=#ff0000;" parent="EjlWz6VdOE6wZs4s_gLQ-16" vertex="1">
          <mxGeometry x="430" y="330" width="130" height="10" as="geometry" />
        </mxCell>
        <mxCell id="EjlWz6VdOE6wZs4s_gLQ-36" value="" style="edgeStyle=orthogonalEdgeStyle;html=1;verticalAlign=bottom;endArrow=open;endSize=8;strokeColor=#ff0000;rounded=0;exitX=0.25;exitY=0.5;exitDx=0;exitDy=0;exitPerimeter=0;entryX=0.5;entryY=0;entryDx=0;entryDy=0;" parent="EjlWz6VdOE6wZs4s_gLQ-16" source="EjlWz6VdOE6wZs4s_gLQ-35" target="EjlWz6VdOE6wZs4s_gLQ-38" edge="1">
          <mxGeometry relative="1" as="geometry">
            <mxPoint x="463" y="390" as="targetPoint" />
          </mxGeometry>
        </mxCell>
        <mxCell id="EjlWz6VdOE6wZs4s_gLQ-38" value="" style="ellipse;html=1;shape=endState;fillColor=#000000;strokeColor=#ff0000;" parent="EjlWz6VdOE6wZs4s_gLQ-16" vertex="1">
          <mxGeometry x="420" y="380" width="30" height="30" as="geometry" />
        </mxCell>
        <mxCell id="EjlWz6VdOE6wZs4s_gLQ-41" value="Выбор отделения" style="rounded=0;whiteSpace=wrap;html=1;" parent="EjlWz6VdOE6wZs4s_gLQ-16" vertex="1">
          <mxGeometry x="500" y="390" width="120" height="60" as="geometry" />
        </mxCell>
        <mxCell id="EjlWz6VdOE6wZs4s_gLQ-39" value="" style="edgeStyle=orthogonalEdgeStyle;html=1;verticalAlign=bottom;endArrow=open;endSize=8;strokeColor=#ff0000;rounded=0;exitX=0.75;exitY=0.5;exitDx=0;exitDy=0;exitPerimeter=0;entryX=0.5;entryY=0;entryDx=0;entryDy=0;" parent="EjlWz6VdOE6wZs4s_gLQ-16" source="EjlWz6VdOE6wZs4s_gLQ-35" target="EjlWz6VdOE6wZs4s_gLQ-41" edge="1">
          <mxGeometry relative="1" as="geometry">
            <mxPoint x="550" y="420" as="targetPoint" />
            <mxPoint x="473" y="345" as="sourcePoint" />
          </mxGeometry>
        </mxCell>
        <mxCell id="EjlWz6VdOE6wZs4s_gLQ-42" value="Хотите изменить данные о сотруднике?" style="rhombus;whiteSpace=wrap;html=1;fontColor=#000000;fillColor=#ffffc0;strokeColor=#ff0000;" parent="EjlWz6VdOE6wZs4s_gLQ-16" vertex="1">
          <mxGeometry x="130" y="850" width="200" height="100" as="geometry" />
        </mxCell>
        <mxCell id="EjlWz6VdOE6wZs4s_gLQ-43" value="нет" style="edgeStyle=orthogonalEdgeStyle;html=1;align=left;verticalAlign=bottom;endArrow=open;endSize=8;strokeColor=#ff0000;rounded=0;exitX=1;exitY=0.5;exitDx=0;exitDy=0;" parent="EjlWz6VdOE6wZs4s_gLQ-16" source="EjlWz6VdOE6wZs4s_gLQ-42" target="EjlWz6VdOE6wZs4s_gLQ-46" edge="1">
          <mxGeometry x="-1" relative="1" as="geometry">
            <mxPoint x="470" y="1140" as="targetPoint" />
          </mxGeometry>
        </mxCell>
        <mxCell id="EjlWz6VdOE6wZs4s_gLQ-44" value="да" style="edgeStyle=orthogonalEdgeStyle;html=1;align=left;verticalAlign=top;endArrow=open;endSize=8;strokeColor=#ff0000;rounded=0;exitX=0;exitY=0.5;exitDx=0;exitDy=0;" parent="EjlWz6VdOE6wZs4s_gLQ-16" source="EjlWz6VdOE6wZs4s_gLQ-42" target="EjlWz6VdOE6wZs4s_gLQ-57" edge="1">
          <mxGeometry x="-1" relative="1" as="geometry">
            <mxPoint x="60" y="980" as="targetPoint" />
          </mxGeometry>
        </mxCell>
        <mxCell id="EjlWz6VdOE6wZs4s_gLQ-46" value="" style="shape=line;html=1;strokeWidth=6;strokeColor=#ff0000;" parent="EjlWz6VdOE6wZs4s_gLQ-16" vertex="1">
          <mxGeometry x="330" y="940" width="80" height="10" as="geometry" />
        </mxCell>
        <mxCell id="EjlWz6VdOE6wZs4s_gLQ-47" value="" style="edgeStyle=orthogonalEdgeStyle;html=1;verticalAlign=bottom;endArrow=open;endSize=8;strokeColor=#ff0000;rounded=0;exitX=0.25;exitY=0.5;exitDx=0;exitDy=0;exitPerimeter=0;entryX=0.5;entryY=0;entryDx=0;entryDy=0;" parent="EjlWz6VdOE6wZs4s_gLQ-16" source="EjlWz6VdOE6wZs4s_gLQ-46" target="EjlWz6VdOE6wZs4s_gLQ-48" edge="1">
          <mxGeometry relative="1" as="geometry">
            <mxPoint x="443" y="1210" as="targetPoint" />
          </mxGeometry>
        </mxCell>
        <mxCell id="EjlWz6VdOE6wZs4s_gLQ-48" value="" style="ellipse;html=1;shape=endState;fillColor=#000000;strokeColor=#ff0000;" parent="EjlWz6VdOE6wZs4s_gLQ-16" vertex="1">
          <mxGeometry x="320" y="980" width="30" height="30" as="geometry" />
        </mxCell>
        <mxCell id="EjlWz6VdOE6wZs4s_gLQ-50" value="" style="edgeStyle=orthogonalEdgeStyle;html=1;verticalAlign=bottom;endArrow=open;endSize=8;strokeColor=#ff0000;rounded=0;exitX=0.75;exitY=0.5;exitDx=0;exitDy=0;exitPerimeter=0;entryX=0.5;entryY=0;entryDx=0;entryDy=0;" parent="EjlWz6VdOE6wZs4s_gLQ-16" source="EjlWz6VdOE6wZs4s_gLQ-46" target="EjlWz6VdOE6wZs4s_gLQ-24" edge="1">
          <mxGeometry relative="1" as="geometry">
            <mxPoint x="610" y="680" as="targetPoint" />
            <mxPoint x="523" y="635" as="sourcePoint" />
            <Array as="points">
              <mxPoint x="390" y="970" />
              <mxPoint x="640" y="970" />
              <mxPoint x="640" y="210" />
              <mxPoint x="325" y="210" />
            </Array>
          </mxGeometry>
        </mxCell>
        <mxCell id="EjlWz6VdOE6wZs4s_gLQ-57" value="Выбор сотрудника" style="rounded=0;whiteSpace=wrap;html=1;" parent="EjlWz6VdOE6wZs4s_gLQ-16" vertex="1">
          <mxGeometry x="40" y="990" width="120" height="60" as="geometry" />
        </mxCell>
        <mxCell id="EjlWz6VdOE6wZs4s_gLQ-60" value="Изменение данных" style="rounded=0;whiteSpace=wrap;html=1;" parent="EjlWz6VdOE6wZs4s_gLQ-16" vertex="1">
          <mxGeometry x="42" y="1190" width="120" height="60" as="geometry" />
        </mxCell>
        <mxCell id="EjlWz6VdOE6wZs4s_gLQ-68" value="" style="ellipse;html=1;shape=endState;fillColor=#000000;strokeColor=#ff0000;" parent="EjlWz6VdOE6wZs4s_gLQ-16" vertex="1">
          <mxGeometry x="130" y="1480" width="30" height="30" as="geometry" />
        </mxCell>
        <mxCell id="EjlWz6VdOE6wZs4s_gLQ-19" value="" style="edgeStyle=orthogonalEdgeStyle;html=1;verticalAlign=bottom;endArrow=open;endSize=8;strokeColor=#ff0000;rounded=0;exitX=0.456;exitY=0.844;exitDx=0;exitDy=0;exitPerimeter=0;entryX=0.537;entryY=-0.008;entryDx=0;entryDy=0;entryPerimeter=0;" parent="EjlWz6VdOE6wZs4s_gLQ-17" source="EjlWz6VdOE6wZs4s_gLQ-18" target="EjlWz6VdOE6wZs4s_gLQ-20" edge="1">
          <mxGeometry relative="1" as="geometry">
            <mxPoint x="160" y="130" as="targetPoint" />
            <Array as="points">
              <mxPoint x="574" y="90" />
              <mxPoint x="135" y="90" />
            </Array>
          </mxGeometry>
        </mxCell>
        <mxCell id="EjlWz6VdOE6wZs4s_gLQ-23" value="" style="edgeStyle=orthogonalEdgeStyle;html=1;verticalAlign=bottom;endArrow=open;endSize=8;strokeColor=#ff0000;rounded=0;exitX=0.5;exitY=1;exitDx=0;exitDy=0;entryX=0.5;entryY=0;entryDx=0;entryDy=0;" parent="EjlWz6VdOE6wZs4s_gLQ-17" source="EjlWz6VdOE6wZs4s_gLQ-20" target="EjlWz6VdOE6wZs4s_gLQ-24" edge="1">
          <mxGeometry relative="1" as="geometry">
            <mxPoint x="560" y="240" as="targetPoint" />
            <mxPoint x="345" y="190" as="sourcePoint" />
          </mxGeometry>
        </mxCell>
        <mxCell id="EjlWz6VdOE6wZs4s_gLQ-28" value="" style="edgeStyle=orthogonalEdgeStyle;html=1;align=left;verticalAlign=top;endArrow=open;endSize=8;strokeColor=#ff0000;rounded=0;exitX=0.5;exitY=1;exitDx=0;exitDy=0;entryX=0.5;entryY=0;entryDx=0;entryDy=0;" parent="EjlWz6VdOE6wZs4s_gLQ-17" source="EjlWz6VdOE6wZs4s_gLQ-27" target="EjlWz6VdOE6wZs4s_gLQ-29" edge="1">
          <mxGeometry x="-0.9091" relative="1" as="geometry">
            <mxPoint x="110" y="390" as="targetPoint" />
            <mxPoint x="530" y="290" as="sourcePoint" />
            <mxPoint as="offset" />
          </mxGeometry>
        </mxCell>
        <mxCell id="EjlWz6VdOE6wZs4s_gLQ-30" value="" style="edgeStyle=orthogonalEdgeStyle;html=1;verticalAlign=bottom;endArrow=open;endSize=8;strokeColor=#ff0000;rounded=0;exitX=0.5;exitY=1;exitDx=0;exitDy=0;" parent="EjlWz6VdOE6wZs4s_gLQ-17" source="EjlWz6VdOE6wZs4s_gLQ-29" target="EjlWz6VdOE6wZs4s_gLQ-31" edge="1">
          <mxGeometry relative="1" as="geometry">
            <mxPoint x="380" y="500" as="targetPoint" />
            <mxPoint x="140" y="200" as="sourcePoint" />
          </mxGeometry>
        </mxCell>
        <mxCell id="EjlWz6VdOE6wZs4s_gLQ-34" value="" style="edgeStyle=orthogonalEdgeStyle;html=1;verticalAlign=bottom;endArrow=open;endSize=8;strokeColor=#ff0000;rounded=0;exitX=0.5;exitY=1;exitDx=0;exitDy=0;entryX=0.5;entryY=0;entryDx=0;entryDy=0;" parent="EjlWz6VdOE6wZs4s_gLQ-17" source="EjlWz6VdOE6wZs4s_gLQ-32" target="EjlWz6VdOE6wZs4s_gLQ-24" edge="1">
          <mxGeometry relative="1" as="geometry">
            <mxPoint x="392" y="510" as="targetPoint" />
            <mxPoint x="130" y="470" as="sourcePoint" />
            <Array as="points">
              <mxPoint x="130" y="660" />
              <mxPoint x="30" y="660" />
              <mxPoint x="30" y="210" />
              <mxPoint x="605" y="210" />
            </Array>
          </mxGeometry>
        </mxCell>
        <mxCell id="EjlWz6VdOE6wZs4s_gLQ-51" value="" style="edgeStyle=orthogonalEdgeStyle;html=1;verticalAlign=bottom;endArrow=open;endSize=8;strokeColor=#ff0000;rounded=0;exitX=0.5;exitY=1;exitDx=0;exitDy=0;" parent="EjlWz6VdOE6wZs4s_gLQ-17" source="EjlWz6VdOE6wZs4s_gLQ-41" target="EjlWz6VdOE6wZs4s_gLQ-52" edge="1">
          <mxGeometry relative="1" as="geometry">
            <mxPoint x="130" y="730" as="targetPoint" />
            <mxPoint x="818" y="345" as="sourcePoint" />
            <Array as="points">
              <mxPoint x="840" y="680" />
              <mxPoint x="131" y="680" />
              <mxPoint x="131" y="730" />
              <mxPoint x="130" y="730" />
            </Array>
          </mxGeometry>
        </mxCell>
        <mxCell id="EjlWz6VdOE6wZs4s_gLQ-53" value="" style="edgeStyle=orthogonalEdgeStyle;html=1;verticalAlign=bottom;endArrow=open;endSize=8;strokeColor=#ff0000;rounded=0;exitX=0.5;exitY=1;exitDx=0;exitDy=0;entryX=0.5;entryY=0;entryDx=0;entryDy=0;" parent="EjlWz6VdOE6wZs4s_gLQ-17" source="EjlWz6VdOE6wZs4s_gLQ-52" target="EjlWz6VdOE6wZs4s_gLQ-42" edge="1">
          <mxGeometry relative="1" as="geometry">
            <mxPoint x="141" y="740" as="targetPoint" />
            <mxPoint x="850" y="460" as="sourcePoint" />
          </mxGeometry>
        </mxCell>
        <mxCell id="EjlWz6VdOE6wZs4s_gLQ-58" value="" style="edgeStyle=orthogonalEdgeStyle;html=1;align=left;verticalAlign=top;endArrow=open;endSize=8;strokeColor=#ff0000;rounded=0;exitX=0.5;exitY=1;exitDx=0;exitDy=0;entryX=0.5;entryY=0;entryDx=0;entryDy=0;" parent="EjlWz6VdOE6wZs4s_gLQ-17" source="EjlWz6VdOE6wZs4s_gLQ-57" target="EjlWz6VdOE6wZs4s_gLQ-59" edge="1">
          <mxGeometry x="-1" relative="1" as="geometry">
            <mxPoint x="110" y="1090" as="targetPoint" />
            <mxPoint x="420" y="910" as="sourcePoint" />
          </mxGeometry>
        </mxCell>
        <mxCell id="EjlWz6VdOE6wZs4s_gLQ-61" value="" style="edgeStyle=orthogonalEdgeStyle;html=1;align=left;verticalAlign=top;endArrow=open;endSize=8;strokeColor=#ff0000;rounded=0;exitX=0.5;exitY=1;exitDx=0;exitDy=0;" parent="EjlWz6VdOE6wZs4s_gLQ-17" source="EjlWz6VdOE6wZs4s_gLQ-59" target="EjlWz6VdOE6wZs4s_gLQ-60" edge="1">
          <mxGeometry x="-1" relative="1" as="geometry">
            <mxPoint x="380" y="1110" as="targetPoint" />
            <mxPoint x="390" y="1060" as="sourcePoint" />
          </mxGeometry>
        </mxCell>
        <mxCell id="EjlWz6VdOE6wZs4s_gLQ-63" value="" style="edgeStyle=orthogonalEdgeStyle;html=1;align=left;verticalAlign=top;endArrow=open;endSize=8;strokeColor=#ff0000;rounded=0;exitX=0.5;exitY=1;exitDx=0;exitDy=0;entryX=0.5;entryY=0;entryDx=0;entryDy=0;" parent="EjlWz6VdOE6wZs4s_gLQ-17" source="EjlWz6VdOE6wZs4s_gLQ-60" target="EjlWz6VdOE6wZs4s_gLQ-62" edge="1">
          <mxGeometry x="-1" relative="1" as="geometry">
            <mxPoint x="120" y="1100" as="targetPoint" />
            <mxPoint x="390" y="1060" as="sourcePoint" />
          </mxGeometry>
        </mxCell>
        <mxCell id="EjlWz6VdOE6wZs4s_gLQ-65" value="" style="edgeStyle=orthogonalEdgeStyle;html=1;align=left;verticalAlign=top;endArrow=open;endSize=8;strokeColor=#ff0000;rounded=0;exitX=0.5;exitY=1;exitDx=0;exitDy=0;" parent="EjlWz6VdOE6wZs4s_gLQ-17" source="EjlWz6VdOE6wZs4s_gLQ-62" target="EjlWz6VdOE6wZs4s_gLQ-66" edge="1">
          <mxGeometry x="-1" relative="1" as="geometry">
            <mxPoint x="460" y="1440" as="targetPoint" />
            <mxPoint x="392" y="1260" as="sourcePoint" />
          </mxGeometry>
        </mxCell>
        <mxCell id="EjlWz6VdOE6wZs4s_gLQ-66" value="" style="shape=line;html=1;strokeWidth=6;strokeColor=#ff0000;" parent="EjlWz6VdOE6wZs4s_gLQ-17" vertex="1">
          <mxGeometry x="420" y="1440" width="80" height="10" as="geometry" />
        </mxCell>
        <mxCell id="EjlWz6VdOE6wZs4s_gLQ-67" value="" style="edgeStyle=orthogonalEdgeStyle;html=1;verticalAlign=bottom;endArrow=open;endSize=8;strokeColor=#ff0000;rounded=0;exitX=0.25;exitY=0.5;exitDx=0;exitDy=0;exitPerimeter=0;entryX=0.5;entryY=0;entryDx=0;entryDy=0;" parent="EjlWz6VdOE6wZs4s_gLQ-17" source="EjlWz6VdOE6wZs4s_gLQ-66" target="EjlWz6VdOE6wZs4s_gLQ-68" edge="1">
          <mxGeometry relative="1" as="geometry">
            <mxPoint x="533" y="1710" as="targetPoint" />
          </mxGeometry>
        </mxCell>
        <mxCell id="EjlWz6VdOE6wZs4s_gLQ-69" value="" style="edgeStyle=orthogonalEdgeStyle;html=1;align=left;verticalAlign=top;endArrow=open;endSize=8;strokeColor=#ff0000;rounded=0;exitX=0.75;exitY=0.5;exitDx=0;exitDy=0;exitPerimeter=0;entryX=0.5;entryY=0;entryDx=0;entryDy=0;" parent="EjlWz6VdOE6wZs4s_gLQ-17" source="EjlWz6VdOE6wZs4s_gLQ-66" target="EjlWz6VdOE6wZs4s_gLQ-24" edge="1">
          <mxGeometry x="-1" relative="1" as="geometry">
            <mxPoint x="1485" y="250" as="targetPoint" />
            <mxPoint x="140" y="1370" as="sourcePoint" />
            <Array as="points">
              <mxPoint x="480" y="1470" />
              <mxPoint x="920" y="1470" />
              <mxPoint x="920" y="210" />
              <mxPoint x="605" y="210" />
            </Array>
          </mxGeometry>
        </mxCell>
        <mxCell id="EjlWz6VdOE6wZs4s_gLQ-33" value="" style="edgeStyle=orthogonalEdgeStyle;html=1;verticalAlign=bottom;endArrow=open;endSize=8;strokeColor=#ff0000;rounded=0;exitX=0.5;exitY=1;exitDx=0;exitDy=0;" parent="1" source="EjlWz6VdOE6wZs4s_gLQ-31" edge="1">
          <mxGeometry relative="1" as="geometry">
            <mxPoint x="240" y="670" as="targetPoint" />
            <mxPoint x="240" y="560" as="sourcePoint" />
          </mxGeometry>
        </mxCell>
      </root>
    </mxGraphModel>
  </diagram>
  <diagram id="aIV0m1n7Mb6zS1oHoNv8" name="Диаграмма пакетов">
    <mxGraphModel dx="1687" dy="984" grid="1" gridSize="10" guides="1" tooltips="1" connect="1" arrows="1" fold="1" page="1" pageScale="1" pageWidth="827" pageHeight="1169" math="0" shadow="0">
      <root>
        <mxCell id="0" />
        <mxCell id="1" parent="0" />
        <mxCell id="CiC5J6kOW71DRfi7sSNp-1" value="Диаграмма пакетов" style="shape=umlFrame;whiteSpace=wrap;html=1;pointerEvents=0;recursiveResize=0;container=1;collapsible=0;width=160;fillColor=#d5e8d4;strokeColor=#82b366;swimlaneFillColor=default;" vertex="1" parent="1">
          <mxGeometry x="100" width="1830" height="600" as="geometry" />
        </mxCell>
        <mxCell id="uSsJcKAcenm1O8dzp3vI-6" value="DataLayer" style="shape=folder;fontStyle=1;tabWidth=110;tabHeight=30;tabPosition=left;html=1;boundedLbl=1;labelInHeader=1;container=1;collapsible=0;recursiveResize=0;whiteSpace=wrap;" parent="1" vertex="1">
          <mxGeometry x="130" y="50" width="890" height="520" as="geometry" />
        </mxCell>
        <mxCell id="uSsJcKAcenm1O8dzp3vI-8" value="DTO" style="shape=folder;fontStyle=1;tabWidth=110;tabHeight=30;tabPosition=left;html=1;boundedLbl=1;labelInHeader=1;container=1;collapsible=0;recursiveResize=0;whiteSpace=wrap;" parent="uSsJcKAcenm1O8dzp3vI-6" vertex="1">
          <mxGeometry x="460" y="50" width="170" height="400" as="geometry" />
        </mxCell>
        <mxCell id="uSsJcKAcenm1O8dzp3vI-10" value="ApiErrorDto" style="rounded=0;whiteSpace=wrap;html=1;" parent="uSsJcKAcenm1O8dzp3vI-8" vertex="1">
          <mxGeometry x="12.5" y="40" width="145" height="30" as="geometry" />
        </mxCell>
        <mxCell id="uSsJcKAcenm1O8dzp3vI-11" value="AuthorDto" style="rounded=0;whiteSpace=wrap;html=1;" parent="uSsJcKAcenm1O8dzp3vI-8" vertex="1">
          <mxGeometry x="12.5" y="80" width="145" height="30" as="geometry" />
        </mxCell>
        <mxCell id="uSsJcKAcenm1O8dzp3vI-12" value="CommentDto" style="rounded=0;whiteSpace=wrap;html=1;" parent="uSsJcKAcenm1O8dzp3vI-8" vertex="1">
          <mxGeometry x="12.5" y="120" width="145" height="30" as="geometry" />
        </mxCell>
        <mxCell id="uSsJcKAcenm1O8dzp3vI-13" value="CommentMapper" style="rounded=0;whiteSpace=wrap;html=1;" parent="uSsJcKAcenm1O8dzp3vI-8" vertex="1">
          <mxGeometry x="12.5" y="160" width="145" height="30" as="geometry" />
        </mxCell>
        <mxCell id="uSsJcKAcenm1O8dzp3vI-14" value="DocumentDto" style="rounded=0;whiteSpace=wrap;html=1;" parent="uSsJcKAcenm1O8dzp3vI-8" vertex="1">
          <mxGeometry x="12.5" y="200" width="145" height="30" as="geometry" />
        </mxCell>
        <mxCell id="uSsJcKAcenm1O8dzp3vI-15" value="EventDto" style="rounded=0;whiteSpace=wrap;html=1;" parent="uSsJcKAcenm1O8dzp3vI-8" vertex="1">
          <mxGeometry x="12.5" y="240" width="145" height="30" as="geometry" />
        </mxCell>
        <mxCell id="uSsJcKAcenm1O8dzp3vI-16" value="EventsResponseDto" style="rounded=0;whiteSpace=wrap;html=1;" parent="uSsJcKAcenm1O8dzp3vI-8" vertex="1">
          <mxGeometry x="12.5" y="280" width="145" height="30" as="geometry" />
        </mxCell>
        <mxCell id="uSsJcKAcenm1O8dzp3vI-17" value="LoginDto" style="rounded=0;whiteSpace=wrap;html=1;" parent="uSsJcKAcenm1O8dzp3vI-8" vertex="1">
          <mxGeometry x="12.5" y="320" width="145" height="30" as="geometry" />
        </mxCell>
        <mxCell id="uSsJcKAcenm1O8dzp3vI-18" value="NewsDto" style="rounded=0;whiteSpace=wrap;html=1;" parent="uSsJcKAcenm1O8dzp3vI-8" vertex="1">
          <mxGeometry x="12.5" y="360" width="145" height="30" as="geometry" />
        </mxCell>
        <mxCell id="uSsJcKAcenm1O8dzp3vI-19" value="DataContexts" style="shape=folder;fontStyle=1;tabWidth=110;tabHeight=30;tabPosition=left;html=1;boundedLbl=1;labelInHeader=1;container=1;collapsible=0;recursiveResize=0;whiteSpace=wrap;" parent="uSsJcKAcenm1O8dzp3vI-6" vertex="1">
          <mxGeometry x="30" y="50" width="170" height="80" as="geometry" />
        </mxCell>
        <mxCell id="uSsJcKAcenm1O8dzp3vI-20" value="AppDataContext" style="rounded=0;whiteSpace=wrap;html=1;" parent="uSsJcKAcenm1O8dzp3vI-19" vertex="1">
          <mxGeometry x="12.5" y="40" width="145" height="30" as="geometry" />
        </mxCell>
        <mxCell id="uSsJcKAcenm1O8dzp3vI-30" value="Models" style="shape=folder;fontStyle=1;tabWidth=110;tabHeight=30;tabPosition=left;html=1;boundedLbl=1;labelInHeader=1;container=1;collapsible=0;recursiveResize=0;whiteSpace=wrap;" parent="uSsJcKAcenm1O8dzp3vI-6" vertex="1">
          <mxGeometry x="250" y="50" width="170" height="440" as="geometry" />
        </mxCell>
        <mxCell id="uSsJcKAcenm1O8dzp3vI-31" value="AbsenceEvent" style="rounded=0;whiteSpace=wrap;html=1;" parent="uSsJcKAcenm1O8dzp3vI-30" vertex="1">
          <mxGeometry x="12.5" y="40" width="145" height="30" as="geometry" />
        </mxCell>
        <mxCell id="uSsJcKAcenm1O8dzp3vI-32" value="Comment" style="rounded=0;whiteSpace=wrap;html=1;" parent="uSsJcKAcenm1O8dzp3vI-30" vertex="1">
          <mxGeometry x="12.5" y="80" width="145" height="30" as="geometry" />
        </mxCell>
        <mxCell id="uSsJcKAcenm1O8dzp3vI-33" value="Dapertment" style="rounded=0;whiteSpace=wrap;html=1;" parent="uSsJcKAcenm1O8dzp3vI-30" vertex="1">
          <mxGeometry x="12.5" y="120" width="145" height="30" as="geometry" />
        </mxCell>
        <mxCell id="uSsJcKAcenm1O8dzp3vI-34" value="Document" style="rounded=0;whiteSpace=wrap;html=1;" parent="uSsJcKAcenm1O8dzp3vI-30" vertex="1">
          <mxGeometry x="12.5" y="160" width="145" height="30" as="geometry" />
        </mxCell>
        <mxCell id="uSsJcKAcenm1O8dzp3vI-35" value="Employee" style="rounded=0;whiteSpace=wrap;html=1;" parent="uSsJcKAcenm1O8dzp3vI-30" vertex="1">
          <mxGeometry x="12.5" y="200" width="145" height="30" as="geometry" />
        </mxCell>
        <mxCell id="uSsJcKAcenm1O8dzp3vI-36" value="Event" style="rounded=0;whiteSpace=wrap;html=1;" parent="uSsJcKAcenm1O8dzp3vI-30" vertex="1">
          <mxGeometry x="12.5" y="240" width="145" height="30" as="geometry" />
        </mxCell>
        <UserObject label="EventType" id="uSsJcKAcenm1O8dzp3vI-37">
          <mxCell style="rounded=0;whiteSpace=wrap;html=1;" parent="uSsJcKAcenm1O8dzp3vI-30" vertex="1">
            <mxGeometry x="12.5" y="280" width="145" height="30" as="geometry" />
          </mxCell>
        </UserObject>
        <mxCell id="uSsJcKAcenm1O8dzp3vI-38" value="Position" style="rounded=0;whiteSpace=wrap;html=1;" parent="uSsJcKAcenm1O8dzp3vI-30" vertex="1">
          <mxGeometry x="12.5" y="320" width="145" height="30" as="geometry" />
        </mxCell>
        <mxCell id="uSsJcKAcenm1O8dzp3vI-39" value="WorkingCalendar" style="rounded=0;whiteSpace=wrap;html=1;" parent="uSsJcKAcenm1O8dzp3vI-30" vertex="1">
          <mxGeometry x="12.5" y="360" width="145" height="30" as="geometry" />
        </mxCell>
        <mxCell id="uSsJcKAcenm1O8dzp3vI-40" value="Candidate" style="rounded=0;whiteSpace=wrap;html=1;" parent="uSsJcKAcenm1O8dzp3vI-30" vertex="1">
          <mxGeometry x="12.5" y="400" width="145" height="30" as="geometry" />
        </mxCell>
        <mxCell id="uSsJcKAcenm1O8dzp3vI-41" value="Services" style="shape=folder;fontStyle=1;tabWidth=110;tabHeight=30;tabPosition=left;html=1;boundedLbl=1;labelInHeader=1;container=1;collapsible=0;recursiveResize=0;whiteSpace=wrap;" parent="uSsJcKAcenm1O8dzp3vI-6" vertex="1">
          <mxGeometry x="670" y="50" width="170" height="320" as="geometry" />
        </mxCell>
        <mxCell id="uSsJcKAcenm1O8dzp3vI-42" value="DepartmentService" style="rounded=0;whiteSpace=wrap;html=1;" parent="uSsJcKAcenm1O8dzp3vI-41" vertex="1">
          <mxGeometry x="12.5" y="40" width="145" height="30" as="geometry" />
        </mxCell>
        <mxCell id="uSsJcKAcenm1O8dzp3vI-43" value="EmployeeService" style="rounded=0;whiteSpace=wrap;html=1;" parent="uSsJcKAcenm1O8dzp3vI-41" vertex="1">
          <mxGeometry x="12.5" y="80" width="145" height="30" as="geometry" />
        </mxCell>
        <mxCell id="uSsJcKAcenm1O8dzp3vI-44" value="EventsService" style="rounded=0;whiteSpace=wrap;html=1;" parent="uSsJcKAcenm1O8dzp3vI-41" vertex="1">
          <mxGeometry x="12.5" y="120" width="145" height="30" as="geometry" />
        </mxCell>
        <mxCell id="uSsJcKAcenm1O8dzp3vI-45" value="NewsService" style="rounded=0;whiteSpace=wrap;html=1;" parent="uSsJcKAcenm1O8dzp3vI-41" vertex="1">
          <mxGeometry x="12.5" y="160" width="145" height="30" as="geometry" />
        </mxCell>
        <mxCell id="uSsJcKAcenm1O8dzp3vI-46" value="PositionService" style="rounded=0;whiteSpace=wrap;html=1;" parent="uSsJcKAcenm1O8dzp3vI-41" vertex="1">
          <mxGeometry x="12.5" y="200" width="145" height="30" as="geometry" />
        </mxCell>
        <mxCell id="uSsJcKAcenm1O8dzp3vI-47" value="TokenService" style="rounded=0;whiteSpace=wrap;html=1;" parent="uSsJcKAcenm1O8dzp3vI-41" vertex="1">
          <mxGeometry x="12.5" y="240" width="145" height="30" as="geometry" />
        </mxCell>
        <mxCell id="uSsJcKAcenm1O8dzp3vI-48" value="WorkingCalendarService" style="rounded=0;whiteSpace=wrap;html=1;" parent="uSsJcKAcenm1O8dzp3vI-41" vertex="1">
          <mxGeometry x="12.5" y="280" width="145" height="30" as="geometry" />
        </mxCell>
        <mxCell id="uSsJcKAcenm1O8dzp3vI-51" style="edgeStyle=orthogonalEdgeStyle;rounded=0;orthogonalLoop=1;jettySize=auto;html=1;exitX=0;exitY=0;exitDx=0;exitDy=215;exitPerimeter=0;entryX=0.986;entryY=0.488;entryDx=0;entryDy=0;entryPerimeter=0;dashed=1;" parent="uSsJcKAcenm1O8dzp3vI-6" source="uSsJcKAcenm1O8dzp3vI-8" target="uSsJcKAcenm1O8dzp3vI-30" edge="1">
          <mxGeometry relative="1" as="geometry" />
        </mxCell>
        <mxCell id="uSsJcKAcenm1O8dzp3vI-52" style="edgeStyle=orthogonalEdgeStyle;rounded=0;orthogonalLoop=1;jettySize=auto;html=1;exitX=0;exitY=0;exitDx=0;exitDy=175;exitPerimeter=0;entryX=0.992;entryY=0.437;entryDx=0;entryDy=0;entryPerimeter=0;dashed=1;" parent="uSsJcKAcenm1O8dzp3vI-6" source="uSsJcKAcenm1O8dzp3vI-41" target="uSsJcKAcenm1O8dzp3vI-8" edge="1">
          <mxGeometry relative="1" as="geometry" />
        </mxCell>
        <mxCell id="uSsJcKAcenm1O8dzp3vI-53" style="edgeStyle=orthogonalEdgeStyle;rounded=0;orthogonalLoop=1;jettySize=auto;html=1;entryX=0.998;entryY=0.96;entryDx=0;entryDy=0;entryPerimeter=0;dashed=1;" parent="uSsJcKAcenm1O8dzp3vI-6" source="uSsJcKAcenm1O8dzp3vI-41" target="uSsJcKAcenm1O8dzp3vI-30" edge="1">
          <mxGeometry relative="1" as="geometry">
            <Array as="points">
              <mxPoint x="755" y="472" />
              <mxPoint x="545" y="472" />
            </Array>
          </mxGeometry>
        </mxCell>
        <mxCell id="uSsJcKAcenm1O8dzp3vI-54" style="edgeStyle=orthogonalEdgeStyle;rounded=0;orthogonalLoop=1;jettySize=auto;html=1;entryX=-0.016;entryY=0.093;entryDx=0;entryDy=0;entryPerimeter=0;dashed=1;" parent="uSsJcKAcenm1O8dzp3vI-6" source="uSsJcKAcenm1O8dzp3vI-19" target="uSsJcKAcenm1O8dzp3vI-30" edge="1">
          <mxGeometry relative="1" as="geometry" />
        </mxCell>
        <mxCell id="uSsJcKAcenm1O8dzp3vI-55" value="DesktopApp" style="shape=folder;fontStyle=1;tabWidth=110;tabHeight=30;tabPosition=left;html=1;boundedLbl=1;labelInHeader=1;container=1;collapsible=0;recursiveResize=0;whiteSpace=wrap;" parent="1" vertex="1">
          <mxGeometry x="1130" y="395" width="210" height="190" as="geometry" />
        </mxCell>
        <mxCell id="uSsJcKAcenm1O8dzp3vI-68" value="Windows" style="shape=folder;fontStyle=1;tabWidth=110;tabHeight=30;tabPosition=left;html=1;boundedLbl=1;labelInHeader=1;container=1;collapsible=0;recursiveResize=0;whiteSpace=wrap;" parent="uSsJcKAcenm1O8dzp3vI-55" vertex="1">
          <mxGeometry x="20" y="50" width="170" height="120" as="geometry" />
        </mxCell>
        <mxCell id="uSsJcKAcenm1O8dzp3vI-69" value="DepartmentsWindow" style="rounded=0;whiteSpace=wrap;html=1;" parent="uSsJcKAcenm1O8dzp3vI-68" vertex="1">
          <mxGeometry x="12.5" y="40" width="145" height="30" as="geometry" />
        </mxCell>
        <mxCell id="uSsJcKAcenm1O8dzp3vI-70" value="EmployeeWindow" style="rounded=0;whiteSpace=wrap;html=1;" parent="uSsJcKAcenm1O8dzp3vI-68" vertex="1">
          <mxGeometry x="12.5" y="80" width="145" height="30" as="geometry" />
        </mxCell>
        <mxCell id="uSsJcKAcenm1O8dzp3vI-91" style="edgeStyle=orthogonalEdgeStyle;rounded=0;orthogonalLoop=1;jettySize=auto;html=1;entryX=1.002;entryY=0.201;entryDx=0;entryDy=0;entryPerimeter=0;dashed=1;" parent="1" source="uSsJcKAcenm1O8dzp3vI-92" target="uSsJcKAcenm1O8dzp3vI-6" edge="1">
          <mxGeometry relative="1" as="geometry">
            <Array as="points">
              <mxPoint x="1070" y="155" />
            </Array>
          </mxGeometry>
        </mxCell>
        <mxCell id="uSsJcKAcenm1O8dzp3vI-128" value="" style="edgeStyle=orthogonalEdgeStyle;rounded=0;orthogonalLoop=1;jettySize=auto;html=1;entryX=1.003;entryY=0.847;entryDx=0;entryDy=0;entryPerimeter=0;dashed=1;" parent="1" source="uSsJcKAcenm1O8dzp3vI-55" target="uSsJcKAcenm1O8dzp3vI-6" edge="1">
          <mxGeometry relative="1" as="geometry">
            <mxPoint x="1410" y="155" as="sourcePoint" />
            <mxPoint x="1022" y="155" as="targetPoint" />
          </mxGeometry>
        </mxCell>
        <mxCell id="uSsJcKAcenm1O8dzp3vI-92" value="API" style="shape=folder;fontStyle=1;tabWidth=110;tabHeight=30;tabPosition=left;html=1;boundedLbl=1;labelInHeader=1;container=1;collapsible=0;recursiveResize=0;whiteSpace=wrap;" parent="1" vertex="1">
          <mxGeometry x="1120" y="50" width="230" height="310" as="geometry" />
        </mxCell>
        <mxCell id="uSsJcKAcenm1O8dzp3vI-105" value="Controllers" style="shape=folder;fontStyle=1;tabWidth=110;tabHeight=30;tabPosition=left;html=1;boundedLbl=1;labelInHeader=1;container=1;collapsible=0;recursiveResize=0;whiteSpace=wrap;" parent="uSsJcKAcenm1O8dzp3vI-92" vertex="1">
          <mxGeometry x="20" y="50" width="190" height="240" as="geometry" />
        </mxCell>
        <mxCell id="uSsJcKAcenm1O8dzp3vI-106" value="AccountController" style="rounded=0;whiteSpace=wrap;html=1;" parent="uSsJcKAcenm1O8dzp3vI-105" vertex="1">
          <mxGeometry x="12.5" y="40" width="167.5" height="30" as="geometry" />
        </mxCell>
        <mxCell id="uSsJcKAcenm1O8dzp3vI-107" value="DocumentsController" style="rounded=0;whiteSpace=wrap;html=1;" parent="uSsJcKAcenm1O8dzp3vI-105" vertex="1">
          <mxGeometry x="12.5" y="80" width="167.5" height="30" as="geometry" />
        </mxCell>
        <mxCell id="uSsJcKAcenm1O8dzp3vI-108" value="EmployeesController" style="rounded=0;whiteSpace=wrap;html=1;" parent="uSsJcKAcenm1O8dzp3vI-105" vertex="1">
          <mxGeometry x="12.5" y="120" width="167.5" height="30" as="geometry" />
        </mxCell>
        <mxCell id="uSsJcKAcenm1O8dzp3vI-109" value="PositionsController" style="rounded=0;whiteSpace=wrap;html=1;" parent="uSsJcKAcenm1O8dzp3vI-105" vertex="1">
          <mxGeometry x="12.5" y="160" width="167.5" height="30" as="geometry" />
        </mxCell>
        <mxCell id="uSsJcKAcenm1O8dzp3vI-110" value="WorkingCalendarsController" style="rounded=0;whiteSpace=wrap;html=1;" parent="uSsJcKAcenm1O8dzp3vI-105" vertex="1">
          <mxGeometry x="12.5" y="200" width="167.5" height="30" as="geometry" />
        </mxCell>
        <mxCell id="uSsJcKAcenm1O8dzp3vI-130" style="edgeStyle=orthogonalEdgeStyle;rounded=0;orthogonalLoop=1;jettySize=auto;html=1;exitX=0;exitY=0;exitDx=890;exitDy=152.5;exitPerimeter=0;entryX=0.009;entryY=0.494;entryDx=0;entryDy=0;entryPerimeter=0;dashed=1;" parent="1" source="uSsJcKAcenm1O8dzp3vI-6" target="uSsJcKAcenm1O8dzp3vI-92" edge="1">
          <mxGeometry relative="1" as="geometry" />
        </mxCell>
        <mxCell id="uSsJcKAcenm1O8dzp3vI-131" value="WebApp" style="shape=folder;fontStyle=1;tabWidth=110;tabHeight=30;tabPosition=left;html=1;boundedLbl=1;labelInHeader=1;container=1;collapsible=0;recursiveResize=0;whiteSpace=wrap;" parent="1" vertex="1">
          <mxGeometry x="1420" y="210" width="490" height="320" as="geometry" />
        </mxCell>
        <mxCell id="uSsJcKAcenm1O8dzp3vI-132" value="Calendar" style="shape=folder;fontStyle=1;tabWidth=110;tabHeight=30;tabPosition=left;html=1;boundedLbl=1;labelInHeader=1;container=1;collapsible=0;recursiveResize=0;whiteSpace=wrap;" parent="uSsJcKAcenm1O8dzp3vI-131" vertex="1">
          <mxGeometry x="19" y="45" width="190" height="125" as="geometry" />
        </mxCell>
        <mxCell id="uSsJcKAcenm1O8dzp3vI-133" value="CalendarHelper" style="rounded=0;whiteSpace=wrap;html=1;" parent="uSsJcKAcenm1O8dzp3vI-132" vertex="1">
          <mxGeometry x="12.5" y="40" width="167.5" height="30" as="geometry" />
        </mxCell>
        <mxCell id="uSsJcKAcenm1O8dzp3vI-134" value="CalendarViewModel" style="rounded=0;whiteSpace=wrap;html=1;" parent="uSsJcKAcenm1O8dzp3vI-132" vertex="1">
          <mxGeometry x="12.5" y="80" width="167.5" height="30" as="geometry" />
        </mxCell>
        <mxCell id="uSsJcKAcenm1O8dzp3vI-138" value="Pages" style="shape=folder;fontStyle=1;tabWidth=110;tabHeight=30;tabPosition=left;html=1;boundedLbl=1;labelInHeader=1;container=1;collapsible=0;recursiveResize=0;whiteSpace=wrap;" parent="uSsJcKAcenm1O8dzp3vI-131" vertex="1">
          <mxGeometry x="250" y="45" width="211" height="250" as="geometry" />
        </mxCell>
        <mxCell id="uSsJcKAcenm1O8dzp3vI-144" value="Shared" style="shape=folder;fontStyle=1;tabWidth=110;tabHeight=30;tabPosition=left;html=1;boundedLbl=1;labelInHeader=1;container=1;collapsible=0;recursiveResize=0;whiteSpace=wrap;" parent="uSsJcKAcenm1O8dzp3vI-138" vertex="1">
          <mxGeometry x="12.5" y="40" width="187.5" height="120" as="geometry" />
        </mxCell>
        <mxCell id="uSsJcKAcenm1O8dzp3vI-143" value="_CalendarPartialModel" style="rounded=0;whiteSpace=wrap;html=1;" parent="uSsJcKAcenm1O8dzp3vI-144" vertex="1">
          <mxGeometry x="8.75" y="40" width="167.5" height="30" as="geometry" />
        </mxCell>
        <mxCell id="uSsJcKAcenm1O8dzp3vI-146" value="_LauoutModel" style="rounded=0;whiteSpace=wrap;html=1;" parent="uSsJcKAcenm1O8dzp3vI-144" vertex="1">
          <mxGeometry x="10" y="80" width="167.5" height="30" as="geometry" />
        </mxCell>
        <mxCell id="uSsJcKAcenm1O8dzp3vI-145" value="ImdexModel" style="rounded=0;whiteSpace=wrap;html=1;" parent="uSsJcKAcenm1O8dzp3vI-138" vertex="1">
          <mxGeometry x="22.5" y="170" width="167.5" height="30" as="geometry" />
        </mxCell>
        <mxCell id="uSsJcKAcenm1O8dzp3vI-147" value="QrCodeModel" style="rounded=0;whiteSpace=wrap;html=1;" parent="uSsJcKAcenm1O8dzp3vI-138" vertex="1">
          <mxGeometry x="22.5" y="210" width="167.5" height="30" as="geometry" />
        </mxCell>
        <mxCell id="uSsJcKAcenm1O8dzp3vI-150" style="edgeStyle=orthogonalEdgeStyle;rounded=0;orthogonalLoop=1;jettySize=auto;html=1;entryX=0.001;entryY=0.25;entryDx=0;entryDy=0;entryPerimeter=0;dashed=1;" parent="uSsJcKAcenm1O8dzp3vI-131" source="uSsJcKAcenm1O8dzp3vI-132" target="uSsJcKAcenm1O8dzp3vI-138" edge="1">
          <mxGeometry relative="1" as="geometry" />
        </mxCell>
        <mxCell id="uSsJcKAcenm1O8dzp3vI-151" style="rounded=0;orthogonalLoop=1;jettySize=auto;html=1;entryX=1;entryY=0.799;entryDx=0;entryDy=0;entryPerimeter=0;dashed=1;edgeStyle=orthogonalEdgeStyle;exitX=-0.002;exitY=0.399;exitDx=0;exitDy=0;exitPerimeter=0;" parent="uSsJcKAcenm1O8dzp3vI-131" source="uSsJcKAcenm1O8dzp3vI-138" target="uSsJcKAcenm1O8dzp3vI-132" edge="1">
          <mxGeometry relative="1" as="geometry">
            <mxPoint x="250" y="145" as="sourcePoint" />
            <Array as="points" />
          </mxGeometry>
        </mxCell>
        <mxCell id="uSsJcKAcenm1O8dzp3vI-149" style="edgeStyle=orthogonalEdgeStyle;rounded=0;orthogonalLoop=1;jettySize=auto;html=1;dashed=1;" parent="1" source="uSsJcKAcenm1O8dzp3vI-131" target="uSsJcKAcenm1O8dzp3vI-6" edge="1">
          <mxGeometry relative="1" as="geometry">
            <mxPoint x="1080" y="420" as="targetPoint" />
            <Array as="points">
              <mxPoint x="1220" y="380" />
              <mxPoint x="1220" y="380" />
            </Array>
          </mxGeometry>
        </mxCell>
      </root>
    </mxGraphModel>
  </diagram>
</mxfile>
